<?xml version="1.0" encoding="UTF-8"?>
<svg id="Capa_1" data-name="Capa 1" xmlns="http://www.w3.org/2000/svg" viewBox="0 0 277.11 282.19">
  <defs>
    <style>
      .cls-1 {
        fill: #072124;
      }
    </style>
  </defs>
  <path class="cls-1" d="m277.11,184.02c-18.502,57.069-72.166,98.314-135.44,98.17C64.622,282.014,1.275,219.598.019,142.559-1.15,70.804,50.926,10.971,119.33,0c-13.379,19.855-21.236,43.72-21.388,69.422-.409,69.28,56.141,126.323,125.422,126.488,19.223.046,37.439-4.219,53.746-11.89Z"/>
  <polygon class="cls-1" points="203.311 104.218 209.891 117.55 224.603 119.688 213.957 130.065 216.47 144.718 203.311 137.8 190.152 144.718 192.665 130.065 182.019 119.688 196.731 117.55 203.311 104.218"/>
  <polygon class="cls-1" points="174.663 31.605 183.516 49.543 203.311 52.419 188.987 66.382 192.368 86.097 174.663 76.789 156.957 86.097 160.339 66.382 146.015 52.419 165.81 49.543 174.663 31.605"/>
</svg>