<?xml version="1.0" encoding="UTF-8"?>
<svg id="Capa_1" data-name="Capa 1" xmlns="http://www.w3.org/2000/svg" viewBox="0 0 273.421 298.298">
  <defs>
    <style>
      .cls-1 {
        fill: none;
        stroke: #838e9e;
        stroke-miterlimit: 10;
        stroke-width: 27px;
      }
    </style>
  </defs>
  <path class="cls-1" d="m13.685,117.099l16.415,143.012c1.615,14.067,13.523,24.687,27.683,24.687h155.119c13.96,0,25.765-10.33,27.618-24.166l19.15-143.012c2.238-16.709-10.759-31.563-27.618-31.563H41.368c-16.648,0-29.581,14.502-27.683,31.042Z"/>
  <path class="cls-1" d="m70.002,124.17c-.237-2.275,0-16.612,0-18.95v-25.663c0-36.482,29.575-66.057,66.057-66.057h0c36.482,0,66.057,29.575,66.057,66.057v25.663c0,2.615.296,16.414,0,18.95"/>
</svg>