<?xml version="1.0" encoding="UTF-8"?>
<svg id="Capa_1" data-name="Capa 1" xmlns="http://www.w3.org/2000/svg" viewBox="0 0 525.57 575.66">
  <defs>
    <style>
      .cls-1 {
        fill: #fff;
      }
    </style>
  </defs>
  <path class="cls-1" d="m84.09,368.51v-225.36S26.89,179.23,0,197.28v219.91l84.09-48.68Z"/>
  <path class="cls-1" d="m0,433.7v141.96s142.3-183.49,275.74-243.06v172.26l84.77-38.13v-176.34s42.55-20.77,78.98-32.34l9.23-2.47,5.91,6.47,57.79-23.07-56.55,24.77-4.72,20.94,74.43-50.43-103.91-9.06,18.38,14.17,70.22-2.59-69.27,4.68,3.26,6.21S204.26,297.53,0,433.7Z"/>
  <path class="cls-1" d="m276.26,291.06V36.77L360,0v260.94c-25.09,6.26-52.09,11.74-84.03,27.32"/>
</svg>