<?xml version="1.0" encoding="UTF-8"?>
<svg id="Capa_1" data-name="Capa 1" xmlns="http://www.w3.org/2000/svg" viewBox="0 0 199.064 175.097">
  <defs>
    <style>
      .cls-1 {
        fill: none;
        stroke: #838e9e;
        stroke-miterlimit: 10;
        stroke-width: 20px;
      }
    </style>
  </defs>
  <path class="cls-1" d="m19.362,10h160.34c5.17,0,9.362,4.191,9.362,9.362v24.408c0,2.565-1.053,5.018-2.912,6.786l-62.942,59.826c-1.859,1.767-2.912,4.22-2.912,6.786v18.85c0,2.768-1.225,5.394-3.346,7.173l-23.489,19.701c-6.092,5.109-15.378.778-15.378-7.173v-45.313c0-2.592-1.075-5.068-2.968-6.838L12.968,45.456c-1.893-1.77-2.968-4.246-2.968-6.838v-19.256c0-5.17,4.191-9.362,9.362-9.362Z"/>
</svg>