<?xml version="1.0" encoding="UTF-8"?>
<svg id="Capa_1" data-name="Capa 1" xmlns="http://www.w3.org/2000/svg" viewBox="0 0 111.92 107.61">
  <defs>
    <style>
      .cls-1 {
        fill: #fbbc4b;
        stroke-width: 0px;
      }
    </style>
  </defs>
  <path class="cls-1" d="m66.68,6.66l8.03,16.28c1.74,3.53,5.11,5.97,9,6.54l17.96,2.61c9.8,1.42,13.72,13.47,6.62,20.39l-13,12.67c-2.82,2.75-4.1,6.7-3.44,10.58l3.07,17.89c1.67,9.76-8.57,17.21-17.34,12.6l-16.06-8.45c-3.48-1.83-7.64-1.83-11.12,0l-16.06,8.45c-8.77,4.61-19.02-2.84-17.34-12.6l3.07-17.89c.67-3.88-.62-7.83-3.44-10.58l-13-12.67c-7.09-6.91-3.18-18.96,6.62-20.39l17.96-2.61c3.89-.57,7.26-3.01,9-6.54l8.03-16.28c4.38-8.88,17.05-8.88,21.44,0Z"/>
</svg>