<?xml version="1.0" encoding="UTF-8"?>
<svg id="Capa_1" data-name="Capa 1" xmlns="http://www.w3.org/2000/svg" viewBox="0 0 509.277 509.277">
  <defs>
    <style>
      .cls-1 {
        fill: #838e9e;
        stroke-width: 19px;
      }

      .cls-1, .cls-2 {
        stroke: #838e9e;
        stroke-miterlimit: 10;
      }

      .cls-2 {
        fill: none;
        stroke-width: 41px;
      }
    </style>
  </defs>
  <circle class="cls-2" cx="254.638" cy="254.638" r="234.138"/>
  <path class="cls-1" d="m170.324,192.634c0-10.679,3.428-21.5,10.286-32.461,6.856-10.961,16.863-20.038,30.016-27.233,13.153-7.193,28.499-10.792,46.036-10.792,16.298,0,30.69,3.009,43.169,9.022,12.478,6.015,22.115,14.194,28.92,24.535,6.8,10.344,10.202,21.584,10.202,33.725,0,9.556-1.939,17.932-5.818,25.125-3.878,7.196-8.49,13.405-13.827,18.633-5.341,5.227-14.924,14.026-28.751,26.39-3.824,3.486-6.888,6.551-9.19,9.19-2.306,2.643-4.022,5.059-5.143,7.251-1.126,2.192-1.998,4.384-2.614,6.576-.62,2.192-1.547,6.045-2.782,11.551-2.137,11.694-8.828,17.537-20.067,17.537-5.847,0-10.767-1.91-14.755-5.733-3.992-3.819-5.987-9.498-5.987-17.031,0-9.443,1.46-17.622,4.385-24.535,2.921-6.914,6.8-12.984,11.635-18.212,4.831-5.227,11.353-11.437,19.561-18.633,7.192-6.294,12.394-11.045,15.598-14.248s5.902-6.771,8.094-10.708c2.192-3.934,3.288-8.205,3.288-12.816,0-8.993-3.347-16.581-10.033-22.765-6.69-6.181-15.32-9.275-25.884-9.275-12.369,0-21.475,3.12-27.318,9.359-5.847,6.239-10.792,15.429-14.839,27.571-3.823,12.705-11.074,19.055-21.753,19.055-6.297,0-11.609-2.219-15.935-6.661-4.329-4.44-6.492-9.246-6.492-14.418Zm82.291,205.764c-6.859,0-12.845-2.222-17.959-6.661-5.117-4.439-7.673-10.649-7.673-18.633,0-7.082,2.471-13.039,7.42-17.875,4.945-4.831,11.016-7.251,18.212-7.251,7.082,0,13.039,2.42,17.875,7.251,4.831,4.835,7.251,10.792,7.251,17.875,0,7.871-2.529,14.055-7.588,18.549-5.059,4.496-10.906,6.745-17.537,6.745Z"/>
</svg>