<?xml version="1.0" encoding="UTF-8"?>
<svg id="Capa_1" data-name="Capa 1" xmlns="http://www.w3.org/2000/svg" viewBox="0 0 139.461 151.532">
  <defs>
    <style>
      .cls-1 {
        fill: none;
        stroke: #838f9e;
        stroke-miterlimit: 10;
        stroke-width: 14px;
      }

      .cls-2 {
        fill: #838f9e;
      }
    </style>
  </defs>
  <path class="cls-1" d="m20.521,45.465C16.508,28.438,45.324,7,70.438,7c24.436,0,52.001,16.45,49.622,36.999"/>
  <path class="cls-1" d="m120.06,43.999s-3.347,29.225,6.593,44.082,6.046,20.801-3.567,26.532H19.842s-18.729-7.217-10.95-22.711"/>
  <path class="cls-1" d="m21.328,64.138c-.948,9.422-8.925,20.76-12.437,27.764"/>
  <path class="cls-1" d="m20.521,45.465s1.876,8.049.807,18.673"/>
  <path class="cls-2" d="m53.254,127.752c2.839,6.589,10.48,10.823,17.709,10.975,3.796.106,7.662-.765,10.975-2.614,3.317-1.827,6.058-4.57,7.67-7.809l10.565,4.858c-2.529,5.706-6.907,10.372-12.066,13.501-10.404,6.377-23.984,6.449-34.615.452-5.336-2.975-10.042-7.562-12.905-13.402,0,0,12.667-5.962,12.667-5.962h0Z"/>
</svg>