<?xml version="1.0" encoding="UTF-8"?>
<svg id="Capa_1" data-name="Capa 1" xmlns="http://www.w3.org/2000/svg" viewBox="0 0 322.761 380.421">
  <defs>
    <style>
      .cls-1 {
        fill: #072124;
      }

      .cls-2 {
        fill: none;
        stroke: #072124;
        stroke-miterlimit: 10;
        stroke-width: 41px;
      }
    </style>
  </defs>
  <path class="cls-2" d="m50.865,112.177c-9.011-40.582,55.704-91.677,112.105-91.677,54.879,0,116.784,39.207,111.441,88.184"/>
  <path class="cls-2" d="m274.41,108.684s-7.516,69.654,14.806,105.067c22.322,35.412,13.578,49.577-8.011,63.237H49.34s-42.061-17.2-24.592-54.13"/>
  <path class="cls-2" d="m52.678,156.683c-2.128,22.457-20.045,49.48-27.93,66.174"/>
  <path class="cls-2" d="m50.865,112.177s4.213,19.183,1.813,44.506"/>
  <path class="cls-1" d="m128.894,319.013c2.588,6.501,7.365,12.41,13.649,16.683,6.261,4.276,13.902,6.887,21.632,7.188,3.863.132,7.757-.216,11.546-1.15,3.788-.925,7.45-2.428,10.836-4.399,6.781-3.942,12.364-9.838,15.705-16.781l31.248,13.537c-5.644,13.733-15.601,25.445-27.842,33.505-6.123,4.041-12.82,7.224-19.859,9.381-7.037,2.166-14.403,3.292-21.792,3.433-14.797.239-29.564-3.782-42.352-11.464-6.395-3.844-12.305-8.62-17.448-14.232-5.143-5.605-9.508-12.056-12.8-19.082l37.48-16.621Z"/>
</svg>